<?xml version="1.0" standalone="no"?>
<!DOCTYPE svg PUBLIC "-//W3C//DTD SVG 20010904//EN"
 "http://www.w3.org/TR/2001/REC-SVG-20010904/DTD/svg10.dtd">
<svg version="1.0" xmlns="http://www.w3.org/2000/svg"
 width="601.000000pt" height="573.000000pt" viewBox="0 0 601.000000 573.000000"
 preserveAspectRatio="xMidYMid meet">

<g transform="translate(0.000000,573.000000) scale(0.100000,-0.100000)"
fill="#000000" stroke="none">
<path d="M2987 5509 c-38 -22 -47 -62 -47 -207 0 -136 -1 -140 -22 -146 -13
-3 -277 -6 -588 -6 -661 -1 -825 -8 -960 -45 -404 -108 -705 -450 -775 -880
-12 -72 -15 -210 -15 -677 l0 -588 -149 0 c-133 0 -151 -2 -174 -20 -34 -27
-41 -63 -21 -106 9 -19 22 -38 28 -42 6 -4 79 -9 161 -12 l150 -5 5 -690 5
-690 28 -88 c32 -104 113 -268 172 -352 47 -67 158 -176 226 -222 123 -85 339
-166 484 -183 53 -6 369 -10 770 -10 l681 0 1 -155 c1 -132 4 -161 20 -188 38
-65 109 -59 145 13 15 29 18 62 18 183 0 133 2 147 18 148 9 0 332 2 717 4
764 4 750 3 935 65 194 65 286 125 410 265 158 178 238 348 269 569 7 49 11
314 11 710 l0 632 135 -4 c74 -3 145 -2 159 2 28 7 66 63 66 98 0 14 -13 37
-31 53 l-30 30 -149 -3 -149 -3 -4 623 c-4 666 -3 647 -58 823 -26 85 -108
252 -157 320 -132 182 -351 328 -590 393 l-97 26 -716 6 c-594 4 -719 7 -733
19 -15 12 -16 30 -10 152 l7 138 -31 30 c-32 33 -79 41 -115 20z m-44 -896 c4
-197 4 -395 0 -440 l-6 -82 -46 -6 c-235 -29 -497 -145 -647 -287 l-54 -51
-373 370 c-383 381 -398 394 -452 373 -29 -11 -49 -61 -41 -104 5 -28 46 -73
219 -243 218 -216 422 -413 491 -475 l40 -35 -41 -49 c-119 -143 -208 -360
-228 -556 l-7 -68 -527 0 -526 0 2 197 c2 109 5 383 7 608 3 327 7 424 19 477
20 85 81 236 125 311 100 168 311 324 510 379 74 21 104 22 789 27 391 3 715
9 719 13 4 4 10 6 14 3 4 -2 10 -165 13 -362z m1682 327 c136 -35 305 -125
401 -213 108 -99 210 -273 255 -433 25 -90 27 -154 32 -884 l2 -445 -521 -3
-521 -3 -6 78 c-15 176 -92 380 -199 521 l-49 65 48 51 c26 28 193 197 370
376 319 322 323 326 323 367 0 34 -6 46 -31 67 -58 49 -75 41 -217 -106 -69
-73 -235 -243 -368 -376 l-241 -244 -39 37 c-157 146 -445 273 -669 294 l-70
6 -3 433 -2 433 727 -4 c553 -3 740 -7 778 -17z m-1419 -1041 c162 -22 346
-100 495 -207 43 -31 79 -60 79 -64 1 -21 -794 -839 -815 -838 -6 0 -57 45
-114 101 -56 55 -115 105 -129 110 -60 23 -132 -28 -132 -94 0 -43 14 -59 191
-217 101 -91 119 -100 192 -100 l52 0 234 238 c130 130 325 328 436 440 l200
203 34 -38 c44 -50 114 -198 140 -295 35 -137 46 -263 31 -385 -28 -244 -100
-405 -264 -597 -115 -135 -290 -251 -468 -312 -85 -29 -236 -54 -328 -54 -191
0 -428 77 -605 195 -243 164 -419 445 -455 726 -30 245 10 473 117 663 45 79
77 120 159 201 146 146 264 220 450 284 141 48 333 63 500 40z m-1398 -1221
c19 -174 96 -368 209 -525 l53 -75 -26 -31 c-14 -18 -190 -197 -390 -400 -319
-322 -364 -371 -364 -398 0 -42 48 -89 90 -89 29 0 69 37 399 371 201 204 378
380 394 391 l27 20 53 -49 c68 -61 252 -166 365 -209 78 -29 241 -64 297 -64
22 0 22 -3 26 -197 3 -109 4 -310 4 -448 l0 -250 -720 0 -720 0 -95 27 c-207
58 -285 101 -417 234 -67 67 -89 98 -127 175 -58 121 -92 224 -105 322 -7 49
-11 309 -11 688 l0 609 523 0 524 0 11 -102z m3503 -538 c1 -544 -2 -646 -15
-708 -47 -216 -131 -368 -273 -494 -82 -73 -136 -106 -235 -144 -168 -64 -164
-64 -951 -64 l-712 0 1 328 c0 180 1 379 2 443 l2 116 63 6 c34 3 107 17 162
31 145 37 380 161 492 259 l36 32 210 -215 c116 -118 285 -291 375 -385 90
-93 173 -175 185 -182 80 -44 162 26 128 111 -4 10 -95 106 -201 215 -500 504
-581 589 -571 596 6 3 21 25 33 48 11 23 32 55 45 71 39 47 120 216 146 308
14 46 30 126 37 176 l13 92 514 -2 514 -3 0 -635z"/>
<path d="M2214 4687 c-40 -35 -35 -85 19 -193 24 -49 57 -123 72 -164 31 -81
87 -150 123 -150 24 0 46 20 68 63 20 37 11 74 -46 187 -21 41 -54 115 -75
163 -28 66 -45 92 -66 102 -39 21 -64 19 -95 -8z"/>
<path d="M1109 3661 c-57 -57 -28 -133 62 -165 86 -30 208 -82 299 -125 46
-23 94 -41 106 -41 34 0 74 54 74 99 0 51 -26 73 -136 117 -49 20 -143 60
-210 90 -67 30 -131 54 -143 54 -13 0 -36 -13 -52 -29z"/>
<path d="M3754 4699 c-26 -13 -47 -49 -78 -135 -14 -38 -44 -108 -68 -154 -52
-105 -56 -156 -16 -196 54 -55 125 -28 153 58 10 29 46 113 81 187 35 74 64
147 64 163 0 62 -77 105 -136 77z"/>
<path d="M4725 3619 c-82 -39 -174 -80 -204 -91 -75 -29 -101 -57 -101 -108 0
-31 6 -47 26 -66 33 -34 59 -29 206 40 62 29 151 68 198 85 123 47 158 87 137
154 -10 30 -52 57 -89 57 -13 0 -90 -32 -173 -71z"/>
<path d="M1479 2366 c-60 -32 -188 -85 -311 -130 -59 -22 -88 -56 -88 -106 0
-30 6 -44 31 -64 41 -35 70 -33 153 13 64 35 194 90 319 135 74 28 100 98 55
151 -37 42 -82 42 -159 1z"/>
<path d="M2370 1480 c-16 -17 -36 -54 -46 -83 -9 -29 -41 -106 -70 -173 -62
-139 -67 -178 -28 -218 56 -56 124 -25 160 72 10 26 42 101 72 167 71 158 74
170 57 210 -26 63 -98 75 -145 25z"/>
<path d="M4457 2389 c-26 -15 -46 -68 -40 -102 5 -25 62 -77 85 -77 5 0 96
-38 203 -85 107 -47 201 -85 210 -85 23 0 63 46 70 81 8 37 -8 80 -37 98 -11
7 -62 28 -112 46 -50 18 -141 56 -202 84 -113 52 -144 59 -177 40z"/>
<path d="M3598 1491 c-41 -33 -52 -78 -32 -136 26 -77 131 -313 153 -344 41
-57 109 -47 143 21 l20 37 -36 78 c-19 43 -56 132 -81 198 -25 66 -54 128 -63
137 -28 29 -73 33 -104 9z"/>
</g>
</svg>
